# xmcd CD database file
#
# Track frame offsets:
#	150
#	14060
#	35425
#
# Disc length: 904 seconds
#
# Revision: 1
# Processed by: cddbd v1.5.2PL0 Copyright (c) Steve Scherf et al.
# Submitted via: CDex 1.81
#
DISCID=1f038603
DTITLE=Harry Connick Jr. - Hear Me In The Harmony
DYEAR=1996
DGENRE=Swing
TTITLE0=Hear Me In The Harmony (radio edit)
TTITLE1=Hear Me In The Harmony (album version)
TTITLE2=Voodoo Mama
EXTD=YEAR: 1996
EXTT0=
EXTT1=
EXTT2=
PLAYORDER=
